<svg xmlns="http://www.w3.org/2000/svg" viewBox="0 0 200 200">
  <defs>
    <!-- Vibrant main gradient -->
    <linearGradient id="mainGradient" x1="0%" y1="0%" x2="100%" y2="100%">
      <stop offset="0%" style="stop-color:#3B82F6;stop-opacity:1" />
      <stop offset="45%" style="stop-color:#06B6D4;stop-opacity:1" />
      <stop offset="75%" style="stop-color:#6366F1;stop-opacity:1" />
      <stop offset="100%" style="stop-color:#A855F7;stop-opacity:1" />
    </linearGradient>
    
    <!-- Shimmering effect -->
    <radialGradient id="shimmer">
      <stop offset="70%" style="stop-color:white;stop-opacity:0.7" />
      <stop offset="100%" style="stop-color:white;stop-opacity:0" />
    </radialGradient>

    <!-- Pulse animation -->
    <animate 
      xlinkHref="#outerRing"
      attributeName="stroke-width"
      values="2;4;2"
      dur="2s"
      repeatCount="indefinite"/>
  </defs>

  <!-- Base circle -->
  <circle cx="100" cy="100" r="90" fill="url(#mainGradient)"/>
  
  <!-- Dynamic spiral elements -->
  <g transform="rotate(-10, 100, 100)">
    <path d="M100,100 m-70,0 a70,70 0 1,1 140,0 a70,70 0 1,1 -140,0" 
          fill="none" 
          stroke="white" 
          stroke-width="12"
          stroke-linecap="round"
          opacity="0.9"/>
          
    <path d="M100,100 m-50,0 a50,50 0 1,1 100,0 a50,50 0 1,1 -100,0" 
          fill="none" 
          stroke="white" 
          stroke-width="8"
          stroke-linecap="round"
          opacity="0.7"/>
          
    <path d="M100,100 m-30,0 a30,30 0 1,1 60,0 a30,30 0 1,1 -60,0" 
          fill="none" 
          stroke="white" 
          stroke-width="6"
          stroke-linecap="round"
          opacity="0.5"/>
  </g>

  <!-- Floating particles -->
  <circle cx="65" cy="65" r="4" fill="white" opacity="0.8"/>
  <circle cx="135" cy="135" r="3" fill="white" opacity="0.6"/>
  <circle cx="135" cy="65" r="3" fill="white" opacity="0.7"/>
  <circle cx="65" cy="135" r="4" fill="white" opacity="0.5"/>

  <!-- Central stabilizer -->
  <circle cx="100" cy="100" r="15" fill="white" opacity="0.95"/>
  <circle cx="100" cy="100" r="10" fill="url(#mainGradient)"/>

  <!-- Dynamic accent lines -->
  <path d="M70,100 Q100,85 130,100" stroke="white" stroke-width="2" fill="none" opacity="0.6"/>
  <path d="M70,110 Q100,95 130,110" stroke="white" stroke-width="2" fill="none" opacity="0.4"/>
  
  <!-- Outer glowing ring -->
  <circle id="outerRing" 
          cx="100" cy="100" r="85" 
          stroke="white" 
          stroke-width="2" 
          fill="none" 
          opacity="0.6"/>

  <!-- Shimmer overlay -->
  <circle cx="100" cy="100" r="88" 
          fill="url(#shimmer)" 
          opacity="0.3"/>
          
  <!-- Subtle orientation dots -->
  <circle cx="100" cy="12" r="2" fill="white" opacity="0.5"/>
  <circle cx="100" cy="188" r="2" fill="white" opacity="0.5"/>
  <circle cx="12" cy="100" r="2" fill="white" opacity="0.5"/>
  <circle cx="188" cy="100" r="2" fill="white" opacity="0.5"/>
</svg>
